<svg width="43" height="43" viewBox="0 0 43 43" fill="none" xmlns="http://www.w3.org/2000/svg">
<path d="M13.9747 3.5835H29.0247C34.758 3.5835 39.4163 8.24183 39.4163 13.9752V29.0252C39.4163 31.7812 38.3215 34.4244 36.3727 36.3732C34.4239 38.322 31.7807 39.4168 29.0247 39.4168H13.9747C8.24134 39.4168 3.58301 34.7585 3.58301 29.0252V13.9752C3.58301 11.2191 4.67784 8.57596 6.62666 6.62714C8.57547 4.67833 11.2186 3.5835 13.9747 3.5835ZM13.6163 7.16683C11.9057 7.16683 10.2651 7.84638 9.0555 9.05599C7.84589 10.2656 7.16634 11.9062 7.16634 13.6168V29.3835C7.16634 32.9489 10.0509 35.8335 13.6163 35.8335H29.383C31.0937 35.8335 32.7342 35.1539 33.9438 33.9443C35.1535 32.7347 35.833 31.0941 35.833 29.3835V13.6168C35.833 10.0514 32.9484 7.16683 29.383 7.16683H13.6163ZM30.9059 9.85433C31.4999 9.85433 32.0695 10.0903 32.4895 10.5103C32.9096 10.9303 33.1455 11.4999 33.1455 12.0939C33.1455 12.6879 32.9096 13.2575 32.4895 13.6775C32.0695 14.0975 31.4999 14.3335 30.9059 14.3335C30.3119 14.3335 29.7423 14.0975 29.3223 13.6775C28.9023 13.2575 28.6663 12.6879 28.6663 12.0939C28.6663 11.4999 28.9023 10.9303 29.3223 10.5103C29.7423 10.0903 30.3119 9.85433 30.9059 9.85433ZM21.4997 12.5418C23.8756 12.5418 26.1542 13.4857 27.8342 15.1657C29.5142 16.8457 30.458 19.1243 30.458 21.5002C30.458 23.8761 29.5142 26.1546 27.8342 27.8347C26.1542 29.5147 23.8756 30.4585 21.4997 30.4585C19.1238 30.4585 16.8452 29.5147 15.1652 27.8347C13.4852 26.1546 12.5413 23.8761 12.5413 21.5002C12.5413 19.1243 13.4852 16.8457 15.1652 15.1657C16.8452 13.4857 19.1238 12.5418 21.4997 12.5418ZM21.4997 16.1252C20.0741 16.1252 18.707 16.6915 17.699 17.6995C16.691 18.7075 16.1247 20.0746 16.1247 21.5002C16.1247 22.9257 16.691 24.2929 17.699 25.3009C18.707 26.3089 20.0741 26.8752 21.4997 26.8752C22.9252 26.8752 24.2924 26.3089 25.3004 25.3009C26.3084 24.2929 26.8747 22.9257 26.8747 21.5002C26.8747 20.0746 26.3084 18.7075 25.3004 17.6995C24.2924 16.6915 22.9252 16.1252 21.4997 16.1252Z" fill="#013451"/>
</svg>
